# xmcd CD database file
#
# Track frame offsets:
#	150
#	22402
#	40963
#	58310
#	81623
#	91259
#	106877
#	131826
#	152251
#	171016
#	192566
#	213649
#	238180
#	267221
#	287447
#	310671
#	331130
#
# Disc length: 4762 seconds
#
# Revision: 0
# Processed by: cddbd v1.5.1PL0 Copyright (c) Steve Scherf et al.
# Submitted via: CDex 1.51
#
DISCID=f8129811
DTITLE=University of Kentuchy Small Chamber Jazz Ensembles - Profound...Like GUMBO
DYEAR=2002
DGENRE=Jazz
TTITLE0=Conservation
TTITLE1=The Easter Islander
TTITLE2=Building
TTITLE3=Svea Rike
TTITLE4=Wapango
TTITLE5=The Frequent Flyer
TTITLE6=Full English Breakfast
TTITLE7=Ablution
TTITLE8=Title Goes Here
TTITLE9=First Step
TTITLE10=Lisa's Bossa
TTITLE11=Union Country Line
TTITLE12=Cecilism
TTITLE13=The Kwisatz Haderach
TTITLE14=Grey Swans
TTITLE15=Blame It...
TTITLE16=Serenade toa Cuckoo
EXTD=YEAR: 2002
EXTT0=
EXTT1=
EXTT2=
EXTT3=
EXTT4=
EXTT5=
EXTT6=
EXTT7=
EXTT8=
EXTT9=
EXTT10=
EXTT11=
EXTT12=
EXTT13=
EXTT14=
EXTT15=
EXTT16=
PLAYORDER=
